<?xml version="1.0" encoding="UTF-8" standalone="no"?>
<!-- Generator: Adobe Illustrator 16.0.0, SVG Export Plug-In . SVG Version: 6.00 Build 0)  -->

<svg
   xmlns:dc="http://purl.org/dc/elements/1.1/"
   xmlns:cc="http://creativecommons.org/ns#"
   xmlns:rdf="http://www.w3.org/1999/02/22-rdf-syntax-ns#"
   xmlns:svg="http://www.w3.org/2000/svg"
   xmlns="http://www.w3.org/2000/svg"
   xmlns:xlink="http://www.w3.org/1999/xlink"
   xmlns:sodipodi="http://sodipodi.sourceforge.net/DTD/sodipodi-0.dtd"
   xmlns:inkscape="http://www.inkscape.org/namespaces/inkscape"
   version="1.1"
   id="Layer_1"
   x="0px"
   y="0px"
   width="220"
   height="220"
   viewBox="0 0 220 220"
   enable-background="new 0 0 174 220"
   xml:space="preserve"
   inkscape:version="0.48.4 r9939"
   sodipodi:docname="icon.svg"
   inkscape:export-filename="/home/gilli/Downloads/icon128.png"
   inkscape:export-xdpi="52.363636"
   inkscape:export-ydpi="52.363636"><metadata
     id="metadata21"><rdf:RDF><cc:Work
         rdf:about=""><dc:format>image/svg+xml</dc:format><dc:type
           rdf:resource="http://purl.org/dc/dcmitype/StillImage" /><dc:title></dc:title></cc:Work></rdf:RDF></metadata><defs
     id="defs19" /><sodipodi:namedview
     pagecolor="#ffffff"
     bordercolor="#666666"
     borderopacity="1"
     objecttolerance="10"
     gridtolerance="10"
     guidetolerance="10"
     inkscape:pageopacity="0"
     inkscape:pageshadow="2"
     inkscape:window-width="850"
     inkscape:window-height="880"
     id="namedview17"
     showgrid="false"
     inkscape:zoom="1.0727273"
     inkscape:cx="107.18603"
     inkscape:cy="110"
     inkscape:window-x="1037"
     inkscape:window-y="51"
     inkscape:window-maximized="0"
     inkscape:current-layer="Layer_1" /><g
     id="g3008"><path
       style="fill:#377ef0"
       inkscape:connector-curvature="0"
       id="path3"
       d="M 189.467,0 H 32 c -4.16,0 -9,3.372 -9,7.531 v 158.938 c 0,4.159 3.373,7.531 7.533,7.531 H 69.322 L 149,220 v -46 h 40.467 c 4.16,0 7.533,-3.372 7.533,-7.531 V 7.531 C 197,3.372 193.627,0 189.467,0 z" /><g
       transform="translate(23,0)"
       style="opacity:0.25"
       id="g5"><defs
         id="defs7"><path
           style="opacity:0.25"
           inkscape:connector-curvature="0"
           d="M 166.467,0 H 9 C 4.84,0 0,3.372 0,7.531 V 166.469 C 0,170.628 3.373,174 7.533,174 H 46.322 L 126,220 v -46 h 40.467 c 4.16,0 7.533,-3.372 7.533,-7.531 V 7.531 C 174,3.372 170.627,0 166.467,0 z"
           id="SVGID_1_" /></defs><clipPath
         id="SVGID_2_"><use
           height="220"
           width="174"
           y="0"
           x="0"
           style="overflow:visible"
           id="use11"
           overflow="visible"
           xlink:href="#SVGID_1_" /></clipPath><polygon
         id="polygon13"
         points="53.627,132.012 200.434,217.012 220.962,217.167 223.768,200 238.148,200 235.208,217.679 255.778,217.835 258.736,200 275.366,200 278.62,179 262.095,179 264.44,165 280.395,165 283.648,145 267.799,145 270.629,127.871 123.629,42.871 103.043,42.868 101.865,51.384 88.771,42.204 68.186,42.201 65.243,60 45.709,60 42.359,80 60.16,90.292 60,94 40.681,94 37.331,115 54.698,123.901 "
         clip-path="url(#SVGID_2_)" /></g><path
       style="fill:#ffffff"
       inkscape:connector-curvature="0"
       id="path15"
       d="m 117.507,94 h -14.381 l 2.346,-14 h 14.381 l -2.346,14 z m 38.888,-14 3.254,-20 h -15.85 L 146.629,42.871 126.043,42.868 123.211,60 h -14.38 L 111.771,42.204 91.185,42.201 88.243,60 H 68.709 l -3.35,20 H 84.884 L 82.538,94 H 63.681 l -3.35,21 H 79.18 l -2.83,17.012 20.57,0.155 L 99.768,115 h 14.381 l -2.94,17.679 20.57,0.156 2.957,-17.835 h 16.63 l 3.254,-21 h -16.525 l 2.346,-14 h 15.954 z" /></g></svg>