<?xml version="1.0" encoding="utf-8"?>
<!-- Generator: Adobe Illustrator 16.0.0, SVG Export Plug-In . SVG Version: 6.00 Build 0)  -->
<!DOCTYPE svg PUBLIC "-//W3C//DTD SVG 1.1//EN" "http://www.w3.org/Graphics/SVG/1.1/DTD/svg11.dtd">
<svg version="1.1"
	 id="Layer_1" xmlns:dc="http://purl.org/dc/elements/1.1/" xmlns:cc="http://creativecommons.org/ns#" xmlns:rdf="http://www.w3.org/1999/02/22-rdf-syntax-ns#" xmlns:svg="http://www.w3.org/2000/svg" xmlns:sodipodi="http://sodipodi.sourceforge.net/DTD/sodipodi-0.dtd" xmlns:inkscape="http://www.inkscape.org/namespaces/inkscape" inkscape:export-ydpi="52.363636" inkscape:export-xdpi="52.363636" sodipodi:docname="icon.svg" inkscape:export-filename="/home/gilli/Downloads/icon128.png" inkscape:version="0.48.4 r9939"
	 xmlns="http://www.w3.org/2000/svg" xmlns:xlink="http://www.w3.org/1999/xlink" x="0px" y="0px" width="240.945px"
	 height="240.938px" viewBox="-10.473 -20.938 240.945 240.938" enable-background="new -10.473 -20.938 240.945 240.938"
	 xml:space="preserve">
<sodipodi:namedview  inkscape:cy="110" inkscape:cx="107.18603" inkscape:zoom="1.0727273" showgrid="false" guidetolerance="10" gridtolerance="10" objecttolerance="10" borderopacity="1" pagecolor="#ffffff" bordercolor="#666666" id="namedview17" inkscape:current-layer="Layer_1" inkscape:window-maximized="0" inkscape:window-y="51" inkscape:window-x="1037" inkscape:window-height="880" inkscape:window-width="850" inkscape:pageshadow="2" inkscape:pageopacity="0">
	</sodipodi:namedview>
<g id="g3008">
	<path id="path3" inkscape:connector-curvature="0" fill="#377EF0" d="M189.467,0H32c-4.16,0-9,3.372-9,7.531v158.938
		c0,4.159,3.373,7.531,7.533,7.531h38.789L149,220v-46h40.467c4.16,0,7.533-3.372,7.533-7.531V7.531C197,3.372,193.627,0,189.467,0z
		"/>
	<g id="g5" transform="translate(23,0)" opacity="0.25" enable-background="new    ">
		<g>
			<defs>
				<path id="SVGID_1_" d="M166.467,0H9C4.84,0,0,3.372,0,7.531v158.938C0,170.628,3.373,174,7.533,174h38.789L126,220v-46h40.467
					c4.16,0,7.533-3.372,7.533-7.531V7.531C174,3.372,170.627,0,166.467,0z"/>
			</defs>
			<clipPath id="SVGID_2_">
				<use xlink:href="#SVGID_1_"  overflow="visible"/>
			</clipPath>
			<polygon id="polygon13" clip-path="url(#SVGID_2_)" points="53.627,132.012 200.434,217.012 220.962,217.167 223.768,200 
				238.148,200 235.208,217.68 255.777,217.835 258.736,200 275.366,200 278.62,179 262.096,179 264.439,165 280.395,165 
				283.648,145 267.799,145 270.629,127.871 123.629,42.871 103.043,42.868 101.865,51.384 88.771,42.204 68.186,42.201 65.243,60 
				45.709,60 42.359,80 60.16,90.292 60,94 40.681,94 37.331,115 54.698,123.9 			"/>
		</g>
	</g>
	<path id="path15" inkscape:connector-curvature="0" fill="#FFFFFF" d="M117.507,94h-14.381l2.346-14h14.381L117.507,94z
		 M156.395,80l3.254-20h-15.85l2.83-17.129l-20.586-0.003L123.211,60h-14.38l2.94-17.796l-20.586-0.003L88.243,60H68.709l-3.35,20
		h19.525l-2.346,14H63.681l-3.35,21H79.18l-2.83,17.012l20.57,0.155L99.768,115h14.38l-2.939,17.68l20.57,0.155L134.736,115h16.63
		l3.254-21h-16.524l2.346-14H156.395L156.395,80z"/>
</g>
</svg>
